<svg width="21" height="20" viewBox="0 0 21 20" fill="none" xmlns="http://www.w3.org/2000/svg">
<path d="M14.2857 5.28571C14.2857 7.65265 12.3669 9.57143 10 9.57143C7.63307 9.57143 5.71429 7.65265 5.71429 5.28571C5.71429 2.91878 7.63307 1 10 1C12.3669 1 14.2857 2.91878 14.2857 5.28571Z" fill="white"/>
<path fill-rule="evenodd" clip-rule="evenodd" d="M10 1.75C8.04729 1.75 6.46429 3.33299 6.46429 5.28571C6.46429 7.23844 8.04729 8.82143 10 8.82143C11.9527 8.82143 13.5357 7.23844 13.5357 5.28571C13.5357 3.33299 11.9527 1.75 10 1.75ZM4.96429 5.28571C4.96429 2.50457 7.21886 0.25 10 0.25C12.7812 0.25 15.0357 2.50457 15.0357 5.28571C15.0357 8.06686 12.7812 10.3214 10 10.3214C7.21886 10.3214 4.96429 8.06686 4.96429 5.28571Z" fill="white"/>
<path d="M19.5719 20.1429H1.00043C1.00043 17.7619 2.85757 13 10.2861 13C17.7147 13 19.5719 17.7619 19.5719 20.1429Z" fill="white"/>
<path fill-rule="evenodd" clip-rule="evenodd" d="M2.31001 15.1661C3.86725 13.5023 6.39986 12.25 10.2861 12.25C14.1724 12.25 16.705 13.5023 18.2623 15.1661C19.7999 16.8088 20.3219 18.7847 20.3219 20.1429C20.3219 20.5571 19.9861 20.8929 19.5719 20.8929H1.00043C0.586214 20.8929 0.250427 20.5571 0.250427 20.1429C0.250427 18.7847 0.772383 16.8088 2.31001 15.1661ZM1.81421 19.3929H18.7581C18.602 18.4301 18.1404 17.2309 17.1672 16.1911C15.9387 14.8786 13.8284 13.75 10.2861 13.75C6.74385 13.75 4.63361 14.8786 3.40513 16.1911C2.43185 17.2309 1.97028 18.4301 1.81421 19.3929Z" fill="white"/>
</svg>
