<svg width="22" height="22" viewBox="0 0 22 22" fill="none" xmlns="http://www.w3.org/2000/svg">
<path fill-rule="evenodd" clip-rule="evenodd" d="M1.25037 10.9999C1.25036 10.5857 1.58615 10.2499 2.00036 10.2499L12.1071 10.2499C12.5213 10.2499 12.8571 10.5856 12.8571 10.9998C12.8571 11.4141 12.5213 11.7499 12.1071 11.7499L2.00037 11.7499C1.58616 11.7499 1.25037 11.4141 1.25037 10.9999Z" fill="white"/>
<path fill-rule="evenodd" clip-rule="evenodd" d="M9.49535 15.1572C9.1719 14.8985 9.11946 14.4265 9.37822 14.103L11.8605 11.0001L9.37822 7.89723C9.11946 7.57379 9.1719 7.10182 9.49535 6.84306C9.81879 6.5843 10.2908 6.63675 10.5495 6.96019L13.3567 10.4692C13.605 10.7796 13.605 11.2207 13.3567 11.5311L10.5495 15.0401C10.2908 15.3635 9.81879 15.416 9.49535 15.1572Z" fill="white"/>
<path fill-rule="evenodd" clip-rule="evenodd" d="M20 2.25L12 2.25003C11.8619 2.25003 11.75 2.36196 11.75 2.50003V3.14289C11.75 3.5571 11.4142 3.89289 11 3.89289C10.5858 3.89289 10.25 3.5571 10.25 3.14289V2.50003C10.25 1.53353 11.0335 0.75003 12 0.750027L20 0.75C20.9665 0.749997 21.75 1.5335 21.75 2.5V19.5C21.75 20.4665 20.9665 21.25 20 21.25H12C11.0335 21.25 10.25 20.4665 10.25 19.5V18.8572C10.25 18.443 10.5858 18.1072 11 18.1072C11.4142 18.1072 11.75 18.443 11.75 18.8572V19.5C11.75 19.6381 11.8619 19.75 12 19.75H20C20.1381 19.75 20.25 19.6381 20.25 19.5V2.5C20.25 2.36193 20.1381 2.25 20 2.25Z" fill="white"/>
</svg>
